<svg width="161" height="42" viewBox="0 0 161 42" fill="none" xmlns="http://www.w3.org/2000/svg">
<rect x="0.5" y="0.5" width="160" height="41" rx="18.5" stroke="#F4A65D"/>
<path d="M68.74 15.56H78.22V17H68.04L68.74 15.56ZM71.24 19.9H77.76V21.28H71.24V19.9ZM71.22 24.3H78.04V25.72H71.22V24.3ZM70.48 16.02H72.02V30.6H70.48V16.02ZM69.5 12.44L70.96 12.82C69.82 16 68.08 19.14 66.24 21.2C66.02 20.94 65.42 20.4 65.08 20.16C66.9 18.3 68.52 15.38 69.5 12.44ZM64.7 12.28L66.14 12.74C64.82 16.12 62.76 19.54 60.58 21.78C60.44 21.42 59.98 20.62 59.7 20.26C61.7 18.32 63.56 15.32 64.7 12.28ZM62.56 17.44L64.04 15.94L64.08 15.96V30.58H62.56V17.44ZM83.86 24.56H101.38V25.82H83.86V24.56ZM83.94 15.78H101.3V17.06H83.94V15.78ZM84.74 19.2H100.58V20.44H84.74V19.2ZM85.76 21.9H99.6V23.06H85.76V21.9ZM91.82 19.78H93.3V30.62H91.82V19.78ZM89.98 12.2H91.4V16.38H89.98V12.2ZM93.76 12.2H95.2V16.32H93.76V12.2ZM91.34 25.06L92.54 25.62C90.68 27.7 87.3 29.44 84.32 30.28C84.1 29.9 83.66 29.32 83.34 29C86.3 28.34 89.64 26.8 91.34 25.06ZM93.78 25.02C95.48 26.82 98.84 28.36 101.88 29C101.54 29.32 101.08 29.92 100.86 30.34C97.82 29.5 94.48 27.68 92.6 25.52L93.78 25.02ZM98.4 12.44L99.94 12.86C99.36 13.96 98.64 15.14 98.08 15.92L96.86 15.52C97.4 14.68 98.06 13.36 98.4 12.44ZM95.72 16.68L97.28 17.06C96.78 17.96 96.26 18.88 95.82 19.52L94.56 19.14C94.96 18.44 95.48 17.4 95.72 16.68ZM85.56 12.86L86.84 12.4C87.52 13.3 88.26 14.56 88.54 15.38L87.2 15.88C86.92 15.08 86.2 13.8 85.56 12.86ZM88.16 17.2L89.58 16.92C90.04 17.58 90.5 18.48 90.68 19.08L89.2 19.4C89.04 18.8 88.6 17.86 88.16 17.2Z" fill="white"/>
</svg>
