<svg width="161" height="42" viewBox="0 0 161 42" fill="none" xmlns="http://www.w3.org/2000/svg">
<rect x="0.5" y="0.5" width="160" height="41" rx="18.5" stroke="#D3D3D5"/>
<path d="M60.08 24.92H77.9V26.32H60.08V24.92ZM60.64 14.56H77.42V15.94H60.64V14.56ZM64.72 17.96H73.3V19.24H64.72V17.96ZM64.72 21.42H73.3V22.72H64.72V21.42ZM63.76 12.24H65.24V25.54H63.76V12.24ZM72.7 12.24H74.22V25.54H72.7V12.24ZM70.46 27.72L71.48 26.76C73.86 27.6 76.4 28.7 77.96 29.54L76.6 30.52C75.18 29.68 72.8 28.58 70.46 27.72ZM66.22 26.64L67.54 27.6C65.76 28.7 63.04 29.86 60.88 30.56C60.66 30.26 60.2 29.74 59.88 29.42C62.04 28.8 64.8 27.62 66.22 26.64ZM94.98 12.24H96.4V26.14H94.98V12.24ZM88.02 20.48L100.04 15.82L100.62 17.12L88.58 21.8L88.02 20.48ZM90.54 14.2H92.02V27.58C92.02 28.72 92.3 28.98 93.72 28.98C94.4 28.98 97.98 28.98 98.86 28.98C100.08 28.98 100.3 28.42 100.46 26.06C100.82 26.32 101.42 26.58 101.86 26.68C101.6 29.44 101.12 30.34 98.9 30.34C98.32 30.34 94.2 30.34 93.66 30.34C91.24 30.34 90.54 29.78 90.54 27.56V14.2ZM99.54 16.16H99.36L99.72 15.86L99.98 15.62L101.02 16.06L100.96 16.3C100.94 19.94 100.9 22.82 100.7 23.68C100.54 24.6 100.12 24.98 99.5 25.14C98.96 25.28 98.08 25.3 97.48 25.28C97.44 24.86 97.28 24.24 97.1 23.9C97.66 23.92 98.38 23.92 98.64 23.92C98.98 23.92 99.2 23.84 99.34 23.32C99.5 22.68 99.54 20.06 99.54 16.16ZM87.92 12.28L89.3 12.72C88 16.08 85.94 19.48 83.8 21.72C83.64 21.38 83.22 20.6 82.96 20.26C84.94 18.32 86.8 15.32 87.92 12.28ZM85.8 17.44L87.24 15.98L87.26 16V30.58H85.8V17.44Z" fill="white"/>
</svg>
