<svg width="161" height="42" viewBox="0 0 161 42" fill="none" xmlns="http://www.w3.org/2000/svg">
<path d="M60.24 17.96H77.82V19.48H60.24V17.96ZM69.98 18.56C71.28 23.4 74 27.44 78.16 29.16C77.78 29.5 77.28 30.14 77.02 30.56C72.7 28.52 69.98 24.3 68.48 18.92L69.98 18.56ZM68.22 12.22H69.84C69.76 17.46 69.72 26.58 60.98 30.58C60.74 30.18 60.26 29.64 59.84 29.34C68.34 25.64 68.18 17.02 68.22 12.22ZM83.88 18.14H101.1V19.44H83.88V18.14ZM85.42 14.58H96.78V15.84H85.42V14.58ZM90.52 12.2H92V18.78H90.52V12.2ZM98.02 20.72L99 21.74C96.48 22.42 92.58 22.88 89.32 23.12C89.28 22.82 89.1 22.34 88.96 22.08C92.12 21.8 95.92 21.3 98.02 20.72ZM99.08 13.14L100.3 13.82C96.26 18.72 90.18 22.44 84.02 24.8C83.82 24.5 83.36 23.9 83.06 23.62C89.3 21.46 95.32 17.74 99.08 13.14ZM88.74 20.76L90.22 20.94C89.8 22.88 89.2 25.34 88.74 26.84L87.24 26.64C87.74 25.12 88.36 22.62 88.74 20.76ZM97.46 24.6H98.98C98.98 24.6 98.94 25.04 98.9 25.28C98.42 28.24 97.98 29.56 97.32 30.14C96.9 30.52 96.48 30.62 95.78 30.64C95.16 30.68 93.98 30.66 92.74 30.58C92.7 30.18 92.52 29.6 92.26 29.2C93.52 29.32 94.82 29.34 95.3 29.34C95.72 29.34 95.96 29.32 96.16 29.16C96.66 28.76 97.08 27.54 97.44 24.8L97.46 24.6ZM88.52 24.6H97.86V25.86H88.2L88.52 24.6Z" fill="white"/>
<rect x="0.5" y="0.5" width="160" height="41" rx="18.5" stroke="#FCD353"/>
</svg>
