<svg width="161" height="42" viewBox="0 0 161 42" fill="none" xmlns="http://www.w3.org/2000/svg">
<rect x="0.5" y="0.5" width="160" height="41" rx="18.5" stroke="#81D6FA"/>
<path d="M68.26 12.5H69.88V28.52C69.88 29.64 69.58 30.08 68.86 30.32C68.14 30.58 66.9 30.62 65 30.62C64.92 30.18 64.64 29.48 64.38 29.04C65.86 29.1 67.3 29.08 67.7 29.06C68.12 29.06 68.26 28.92 68.26 28.52V12.5ZM73.1 17.6L74.54 17.04C76.28 19.86 77.98 23.52 78.5 25.94L76.9 26.58C76.42 24.22 74.8 20.46 73.1 17.6ZM63.02 17.18L64.7 17.46C64.04 20.4 62.88 24.02 61.06 26.26C60.7 25.98 60.04 25.62 59.64 25.46C61.42 23.34 62.52 19.88 63.02 17.18ZM83.88 18.14H101.1V19.44H83.88V18.14ZM85.42 14.58H96.78V15.84H85.42V14.58ZM90.52 12.2H92V18.78H90.52V12.2ZM98.02 20.72L99 21.74C96.48 22.42 92.58 22.88 89.32 23.12C89.28 22.82 89.1 22.34 88.96 22.08C92.12 21.8 95.92 21.3 98.02 20.72ZM99.08 13.14L100.3 13.82C96.26 18.72 90.18 22.44 84.02 24.8C83.82 24.5 83.36 23.9 83.06 23.62C89.3 21.46 95.32 17.74 99.08 13.14ZM88.74 20.76L90.22 20.94C89.8 22.88 89.2 25.34 88.74 26.84L87.24 26.64C87.74 25.12 88.36 22.62 88.74 20.76ZM97.46 24.6H98.98C98.98 24.6 98.94 25.04 98.9 25.28C98.42 28.24 97.98 29.56 97.32 30.14C96.9 30.52 96.48 30.62 95.78 30.64C95.16 30.68 93.98 30.66 92.74 30.58C92.7 30.18 92.52 29.6 92.26 29.2C93.52 29.32 94.82 29.34 95.3 29.34C95.72 29.34 95.96 29.32 96.16 29.16C96.66 28.76 97.08 27.54 97.44 24.8L97.46 24.6ZM88.52 24.6H97.86V25.86H88.2L88.52 24.6Z" fill="white"/>
</svg>
